<?xml version="1.0" standalone="no"?>
<!DOCTYPE svg PUBLIC "-//W3C//DTD SVG 20010904//EN"
 "http://www.w3.org/TR/2001/REC-SVG-20010904/DTD/svg10.dtd">
<svg version="1.0" xmlns="http://www.w3.org/2000/svg"
 width="200.000000pt" height="200.000000pt" viewBox="0 0 200.000000 200.000000"
 preserveAspectRatio="xMidYMid meet">

<g transform="translate(0.000000,200.000000) scale(0.100000,-0.100000)"
fill="#000000" stroke="none">
<path d="M852 1630 c-523 -141 -648 -823 -208 -1134 114 -81 224 -116 367
-116 181 0 316 57 449 190 122 121 176 240 187 410 7 111 -14 210 -68 320 -33
67 -59 102 -123 165 -125 124 -243 175 -421 181 -88 3 -125 0 -183 -16z m293
-122 c77 -19 173 -78 235 -145 98 -104 140 -209 140 -348 0 -237 -155 -436
-384 -495 -93 -24 -137 -25 -227 -6 -221 47 -387 235 -405 459 -29 350 296
621 641 535z"/>
<path d="M742 1294 c-15 -10 -22 -25 -22 -46 0 -26 17 -48 99 -132 l100 -101
-100 -102 c-106 -108 -120 -141 -81 -176 38 -34 62 -22 169 85 l103 102 103
-102 c112 -109 138 -121 177 -82 36 36 25 57 -80 165 -55 55 -100 105 -100
110 0 5 45 55 100 110 105 108 116 129 80 165 -39 39 -65 27 -177 -82 l-103
-102 -103 102 c-105 105 -124 115 -165 86z"/>
</g>
</svg>
