<?xml version="1.0" standalone="no"?>
<!DOCTYPE svg PUBLIC "-//W3C//DTD SVG 20010904//EN"
 "http://www.w3.org/TR/2001/REC-SVG-20010904/DTD/svg10.dtd">
<svg version="1.0" xmlns="http://www.w3.org/2000/svg"
 width="225.000000pt" height="225.000000pt" viewBox="0 0 225.000000 225.000000"
 preserveAspectRatio="xMidYMid meet">

<g transform="translate(0.000000,225.000000) scale(0.100000,-0.100000)"
fill="#000000" stroke="none">
<path d="M221 1952 c-45 -22 -71 -59 -78 -108 -7 -53 17 -108 59 -134 32 -20
48 -20 923 -20 875 0 891 0 923 20 42 26 66 81 59 134 -7 49 -33 86 -78 108
-32 17 -95 18 -904 18 -809 0 -872 -1 -904 -18z"/>
<path d="M191 1234 c-63 -52 -65 -152 -6 -211 l33 -33 907 0 907 0 33 33 c59
59 57 159 -6 211 l-31 26 -903 0 -903 0 -31 -26z"/>
<path d="M202 540 c-42 -26 -66 -81 -59 -134 7 -49 33 -86 78 -108 32 -17 95
-18 904 -18 809 0 872 1 904 18 45 22 71 59 78 108 7 53 -17 108 -59 134 -32
20 -48 20 -923 20 -875 0 -891 0 -923 -20z"/>
</g>
</svg>
